<mxfile host="app.diagrams.net" modified="2020-11-30T20:03:49.064Z" agent="5.0 (X11; Linux x86_64) AppleWebKit/537.36 (KHTML, like Gecko) Chrome/86.0.4240.198 Safari/537.36" etag="MRa9R-Hxs4gMF6PY-sPW" version="13.10.2" type="github">
  <diagram id="C5RBs43oDa-KdzZeNtuy" name="Page-1">
    <mxGraphModel dx="798" dy="494" grid="1" gridSize="10" guides="1" tooltips="1" connect="1" arrows="1" fold="1" page="1" pageScale="1" pageWidth="827" pageHeight="1169" math="0" shadow="0">
      <root>
        <mxCell id="WIyWlLk6GJQsqaUBKTNV-0" />
        <mxCell id="WIyWlLk6GJQsqaUBKTNV-1" parent="WIyWlLk6GJQsqaUBKTNV-0" />
        <mxCell id="VpD8w-KAUAByEMXQQ5Yl-3" value="Ansible Role:&amp;nbsp;alexismaior.ansible_role_manage_rancher_cluster&lt;br&gt;" style="verticalLabelPosition=bottom;verticalAlign=top;html=1;shape=mxgraph.basic.diag_round_rect;dx=6;fontSize=11;labelBackgroundColor=none;fillColor=none;dashed=1;" vertex="1" parent="WIyWlLk6GJQsqaUBKTNV-1">
          <mxGeometry x="290" y="327" width="440" height="293" as="geometry" />
        </mxCell>
        <mxCell id="WIyWlLk6GJQsqaUBKTNV-2" value="" style="rounded=0;html=1;jettySize=auto;orthogonalLoop=1;fontSize=11;endArrow=block;endFill=0;endSize=8;strokeWidth=1;shadow=0;labelBackgroundColor=none;edgeStyle=orthogonalEdgeStyle;" parent="WIyWlLk6GJQsqaUBKTNV-1" source="JwHX2udDNT2M7cvMBdkV-4" target="JwHX2udDNT2M7cvMBdkV-0" edge="1">
          <mxGeometry relative="1" as="geometry">
            <mxPoint x="235" y="120" as="sourcePoint" />
          </mxGeometry>
        </mxCell>
        <mxCell id="WIyWlLk6GJQsqaUBKTNV-4" value="No" style="rounded=0;html=1;jettySize=auto;orthogonalLoop=1;fontSize=11;endArrow=block;endFill=0;endSize=8;strokeWidth=1;shadow=0;labelBackgroundColor=none;edgeStyle=orthogonalEdgeStyle;" parent="WIyWlLk6GJQsqaUBKTNV-1" source="WIyWlLk6GJQsqaUBKTNV-6" target="WIyWlLk6GJQsqaUBKTNV-11" edge="1">
          <mxGeometry y="20" relative="1" as="geometry">
            <mxPoint as="offset" />
            <mxPoint x="390" y="550" as="targetPoint" />
          </mxGeometry>
        </mxCell>
        <mxCell id="WIyWlLk6GJQsqaUBKTNV-5" value="Yes" style="edgeStyle=orthogonalEdgeStyle;rounded=0;html=1;jettySize=auto;orthogonalLoop=1;fontSize=11;endArrow=block;endFill=0;endSize=8;strokeWidth=1;shadow=0;labelBackgroundColor=none;" parent="WIyWlLk6GJQsqaUBKTNV-1" source="WIyWlLk6GJQsqaUBKTNV-6" target="ro4fjz_k7fc-FlAlumym-7" edge="1">
          <mxGeometry y="10" relative="1" as="geometry">
            <mxPoint as="offset" />
            <mxPoint x="560" y="385" as="targetPoint" />
          </mxGeometry>
        </mxCell>
        <mxCell id="WIyWlLk6GJQsqaUBKTNV-6" value="Check if cluster already exists" style="rhombus;whiteSpace=wrap;html=1;shadow=0;fontFamily=Helvetica;fontSize=12;align=center;strokeWidth=1;spacing=6;spacingTop=-4;" parent="WIyWlLk6GJQsqaUBKTNV-1" vertex="1">
          <mxGeometry x="330" y="342" width="120" height="90" as="geometry" />
        </mxCell>
        <mxCell id="ro4fjz_k7fc-FlAlumym-2" value="" style="edgeStyle=orthogonalEdgeStyle;rounded=0;orthogonalLoop=1;jettySize=auto;html=1;" parent="WIyWlLk6GJQsqaUBKTNV-1" source="WIyWlLk6GJQsqaUBKTNV-11" target="ro4fjz_k7fc-FlAlumym-1" edge="1">
          <mxGeometry relative="1" as="geometry" />
        </mxCell>
        <mxCell id="WIyWlLk6GJQsqaUBKTNV-11" value="Create Cluster" style="rounded=1;whiteSpace=wrap;html=1;fontSize=12;glass=0;strokeWidth=1;shadow=0;" parent="WIyWlLk6GJQsqaUBKTNV-1" vertex="1">
          <mxGeometry x="330" y="480" width="120" height="40" as="geometry" />
        </mxCell>
        <mxCell id="ro4fjz_k7fc-FlAlumym-0" value="Begin" style="ellipse;whiteSpace=wrap;html=1;aspect=fixed;" parent="WIyWlLk6GJQsqaUBKTNV-1" vertex="1">
          <mxGeometry y="40" width="60" height="60" as="geometry" />
        </mxCell>
        <mxCell id="ro4fjz_k7fc-FlAlumym-10" style="edgeStyle=orthogonalEdgeStyle;rounded=0;orthogonalLoop=1;jettySize=auto;html=1;entryX=0;entryY=0.75;entryDx=0;entryDy=0;" parent="WIyWlLk6GJQsqaUBKTNV-1" source="ro4fjz_k7fc-FlAlumym-1" target="ro4fjz_k7fc-FlAlumym-7" edge="1">
          <mxGeometry relative="1" as="geometry" />
        </mxCell>
        <mxCell id="ro4fjz_k7fc-FlAlumym-1" value="Create Cluster Token" style="whiteSpace=wrap;html=1;rounded=1;shadow=0;strokeWidth=1;glass=0;" parent="WIyWlLk6GJQsqaUBKTNV-1" vertex="1">
          <mxGeometry x="330" y="540" width="120" height="40" as="geometry" />
        </mxCell>
        <mxCell id="ro4fjz_k7fc-FlAlumym-9" style="edgeStyle=orthogonalEdgeStyle;rounded=0;orthogonalLoop=1;jettySize=auto;html=1;entryX=0.5;entryY=0;entryDx=0;entryDy=0;" parent="WIyWlLk6GJQsqaUBKTNV-1" source="ro4fjz_k7fc-FlAlumym-7" target="ro4fjz_k7fc-FlAlumym-8" edge="1">
          <mxGeometry relative="1" as="geometry" />
        </mxCell>
        <mxCell id="ro4fjz_k7fc-FlAlumym-7" value="Get Cluster ID" style="whiteSpace=wrap;html=1;rounded=1;shadow=0;strokeWidth=1;glass=0;" parent="WIyWlLk6GJQsqaUBKTNV-1" vertex="1">
          <mxGeometry x="509" y="372" width="120" height="30" as="geometry" />
        </mxCell>
        <mxCell id="ro4fjz_k7fc-FlAlumym-12" value="" style="edgeStyle=orthogonalEdgeStyle;rounded=0;orthogonalLoop=1;jettySize=auto;html=1;" parent="WIyWlLk6GJQsqaUBKTNV-1" source="ro4fjz_k7fc-FlAlumym-8" target="ro4fjz_k7fc-FlAlumym-11" edge="1">
          <mxGeometry relative="1" as="geometry" />
        </mxCell>
        <mxCell id="ro4fjz_k7fc-FlAlumym-8" value="Get Installed Node List" style="whiteSpace=wrap;html=1;rounded=1;shadow=0;strokeWidth=1;glass=0;" parent="WIyWlLk6GJQsqaUBKTNV-1" vertex="1">
          <mxGeometry x="509" y="430" width="120" height="30" as="geometry" />
        </mxCell>
        <mxCell id="ro4fjz_k7fc-FlAlumym-14" value="" style="edgeStyle=orthogonalEdgeStyle;rounded=0;orthogonalLoop=1;jettySize=auto;html=1;" parent="WIyWlLk6GJQsqaUBKTNV-1" source="ro4fjz_k7fc-FlAlumym-11" target="ro4fjz_k7fc-FlAlumym-13" edge="1">
          <mxGeometry relative="1" as="geometry" />
        </mxCell>
        <mxCell id="ro4fjz_k7fc-FlAlumym-11" value="Create Add Node Command" style="whiteSpace=wrap;html=1;rounded=1;shadow=0;strokeWidth=1;glass=0;" parent="WIyWlLk6GJQsqaUBKTNV-1" vertex="1">
          <mxGeometry x="509" y="490" width="121" height="30" as="geometry" />
        </mxCell>
        <mxCell id="ro4fjz_k7fc-FlAlumym-16" style="edgeStyle=orthogonalEdgeStyle;rounded=0;orthogonalLoop=1;jettySize=auto;html=1;exitX=1;exitY=0.5;exitDx=0;exitDy=0;entryX=0;entryY=0.5;entryDx=0;entryDy=0;" parent="WIyWlLk6GJQsqaUBKTNV-1" source="ro4fjz_k7fc-FlAlumym-13" edge="1">
          <mxGeometry relative="1" as="geometry">
            <mxPoint x="690" y="565.5" as="targetPoint" />
          </mxGeometry>
        </mxCell>
        <mxCell id="ro4fjz_k7fc-FlAlumym-13" value="Execute Command on Nodes" style="whiteSpace=wrap;html=1;rounded=1;shadow=0;strokeWidth=1;glass=0;" parent="WIyWlLk6GJQsqaUBKTNV-1" vertex="1">
          <mxGeometry x="511.5" y="548" width="115.5" height="35" as="geometry" />
        </mxCell>
        <mxCell id="VpD8w-KAUAByEMXQQ5Yl-5" style="edgeStyle=orthogonalEdgeStyle;rounded=0;orthogonalLoop=1;jettySize=auto;html=1;exitX=1;exitY=0.5;exitDx=0;exitDy=0;fontSize=11;fontColor=#000000;" edge="1" parent="WIyWlLk6GJQsqaUBKTNV-1" source="ro4fjz_k7fc-FlAlumym-15" target="ro4fjz_k7fc-FlAlumym-17">
          <mxGeometry relative="1" as="geometry" />
        </mxCell>
        <mxCell id="ro4fjz_k7fc-FlAlumym-15" value="Wait for cluster ready" style="ellipse;whiteSpace=wrap;html=1;aspect=fixed;" parent="WIyWlLk6GJQsqaUBKTNV-1" vertex="1">
          <mxGeometry x="652" y="535" width="59" height="59" as="geometry" />
        </mxCell>
        <mxCell id="ro4fjz_k7fc-FlAlumym-17" value="End" style="ellipse;whiteSpace=wrap;html=1;aspect=fixed;" parent="WIyWlLk6GJQsqaUBKTNV-1" vertex="1">
          <mxGeometry x="750" y="535" width="59" height="59" as="geometry" />
        </mxCell>
        <mxCell id="JwHX2udDNT2M7cvMBdkV-2" value="Yes" style="edgeStyle=orthogonalEdgeStyle;rounded=0;orthogonalLoop=1;jettySize=auto;html=1;exitX=0.5;exitY=1;exitDx=0;exitDy=0;entryX=0.5;entryY=0;entryDx=0;entryDy=0;" parent="WIyWlLk6GJQsqaUBKTNV-1" source="JwHX2udDNT2M7cvMBdkV-0" target="JwHX2udDNT2M7cvMBdkV-1" edge="1">
          <mxGeometry relative="1" as="geometry">
            <mxPoint x="393" y="115" as="sourcePoint" />
          </mxGeometry>
        </mxCell>
        <mxCell id="JwHX2udDNT2M7cvMBdkV-8" value="No" style="edgeStyle=orthogonalEdgeStyle;rounded=0;orthogonalLoop=1;jettySize=auto;html=1;exitX=1;exitY=0.5;exitDx=0;exitDy=0;" parent="WIyWlLk6GJQsqaUBKTNV-1" source="JwHX2udDNT2M7cvMBdkV-0" target="JwHX2udDNT2M7cvMBdkV-6" edge="1">
          <mxGeometry relative="1" as="geometry" />
        </mxCell>
        <mxCell id="JwHX2udDNT2M7cvMBdkV-0" value="Inventory Empty?" style="rhombus;whiteSpace=wrap;html=1;shadow=0;fontFamily=Helvetica;fontSize=12;align=center;strokeWidth=1;spacing=6;spacingTop=-4;" parent="WIyWlLk6GJQsqaUBKTNV-1" vertex="1">
          <mxGeometry x="140" y="120" width="120" height="90" as="geometry" />
        </mxCell>
        <mxCell id="JwHX2udDNT2M7cvMBdkV-7" style="edgeStyle=orthogonalEdgeStyle;rounded=0;orthogonalLoop=1;jettySize=auto;html=1;exitX=0;exitY=0.5;exitDx=0;exitDy=0;entryX=0;entryY=0.75;entryDx=0;entryDy=0;" parent="WIyWlLk6GJQsqaUBKTNV-1" source="JwHX2udDNT2M7cvMBdkV-1" target="JwHX2udDNT2M7cvMBdkV-4" edge="1">
          <mxGeometry relative="1" as="geometry" />
        </mxCell>
        <mxCell id="JwHX2udDNT2M7cvMBdkV-1" value="Provision VM &lt;br&gt;&lt;font style=&quot;font-size: 9px&quot;&gt;(Ansible Role:&amp;nbsp;jtyr.ansible_vmware_vm_provisioning)&amp;nbsp;&lt;/font&gt;" style="rounded=1;whiteSpace=wrap;html=1;fontSize=12;glass=0;strokeWidth=1;shadow=0;" parent="WIyWlLk6GJQsqaUBKTNV-1" vertex="1">
          <mxGeometry x="90" y="260" width="220" height="40" as="geometry" />
        </mxCell>
        <mxCell id="JwHX2udDNT2M7cvMBdkV-4" value="Get VM Inventory&lt;br&gt;&lt;span style=&quot;font-size: 9px&quot;&gt;(Dynamic Inventory:&amp;nbsp;VMWare Community)&lt;/span&gt;" style="rounded=1;whiteSpace=wrap;html=1;fontSize=12;glass=0;strokeWidth=1;shadow=0;" parent="WIyWlLk6GJQsqaUBKTNV-1" vertex="1">
          <mxGeometry x="95" y="50" width="210" height="40" as="geometry" />
        </mxCell>
        <mxCell id="JwHX2udDNT2M7cvMBdkV-5" value="" style="rounded=0;html=1;jettySize=auto;orthogonalLoop=1;fontSize=11;endArrow=block;endFill=0;endSize=8;strokeWidth=1;shadow=0;labelBackgroundColor=none;edgeStyle=orthogonalEdgeStyle;entryX=0;entryY=0.5;entryDx=0;entryDy=0;" parent="WIyWlLk6GJQsqaUBKTNV-1" source="ro4fjz_k7fc-FlAlumym-0" target="JwHX2udDNT2M7cvMBdkV-4" edge="1">
          <mxGeometry relative="1" as="geometry">
            <mxPoint x="60" y="70" as="sourcePoint" />
            <mxPoint x="220" y="70" as="targetPoint" />
          </mxGeometry>
        </mxCell>
        <mxCell id="JwHX2udDNT2M7cvMBdkV-10" value="No" style="edgeStyle=orthogonalEdgeStyle;rounded=0;orthogonalLoop=1;jettySize=auto;html=1;exitX=1;exitY=0.5;exitDx=0;exitDy=0;fontSize=11;" parent="WIyWlLk6GJQsqaUBKTNV-1" source="JwHX2udDNT2M7cvMBdkV-6" target="JwHX2udDNT2M7cvMBdkV-11" edge="1">
          <mxGeometry relative="1" as="geometry">
            <mxPoint x="490" y="165" as="targetPoint" />
          </mxGeometry>
        </mxCell>
        <mxCell id="VpD8w-KAUAByEMXQQ5Yl-0" style="edgeStyle=orthogonalEdgeStyle;rounded=0;orthogonalLoop=1;jettySize=auto;html=1;exitX=0.5;exitY=1;exitDx=0;exitDy=0;fontSize=11;" edge="1" parent="WIyWlLk6GJQsqaUBKTNV-1" source="JwHX2udDNT2M7cvMBdkV-6" target="WIyWlLk6GJQsqaUBKTNV-6">
          <mxGeometry relative="1" as="geometry" />
        </mxCell>
        <mxCell id="VpD8w-KAUAByEMXQQ5Yl-2" value="Yes" style="edgeLabel;html=1;align=center;verticalAlign=middle;resizable=0;points=[];fontSize=11;" vertex="1" connectable="0" parent="VpD8w-KAUAByEMXQQ5Yl-0">
          <mxGeometry x="-0.3385" y="2" relative="1" as="geometry">
            <mxPoint as="offset" />
          </mxGeometry>
        </mxCell>
        <mxCell id="JwHX2udDNT2M7cvMBdkV-6" value="Check if node(s) is already in a Cluster" style="rhombus;whiteSpace=wrap;html=1;shadow=0;fontFamily=Helvetica;fontSize=11;align=center;strokeWidth=1;spacing=6;spacingTop=-4;" parent="WIyWlLk6GJQsqaUBKTNV-1" vertex="1">
          <mxGeometry x="330" y="120" width="120" height="90" as="geometry" />
        </mxCell>
        <mxCell id="JwHX2udDNT2M7cvMBdkV-13" value="" style="edgeStyle=orthogonalEdgeStyle;rounded=0;orthogonalLoop=1;jettySize=auto;html=1;fontSize=11;" parent="WIyWlLk6GJQsqaUBKTNV-1" source="JwHX2udDNT2M7cvMBdkV-11" target="JwHX2udDNT2M7cvMBdkV-12" edge="1">
          <mxGeometry relative="1" as="geometry" />
        </mxCell>
        <mxCell id="JwHX2udDNT2M7cvMBdkV-11" value="Install Docker&lt;br&gt;&lt;font style=&quot;font-size: 9px&quot;&gt;(Ansible Role:&amp;nbsp;ericsysmin.docker.docker)&amp;nbsp;&lt;/font&gt;" style="rounded=1;whiteSpace=wrap;html=1;fontSize=12;glass=0;strokeWidth=1;shadow=0;" parent="WIyWlLk6GJQsqaUBKTNV-1" vertex="1">
          <mxGeometry x="500" y="145" width="220" height="35" as="geometry" />
        </mxCell>
        <mxCell id="JwHX2udDNT2M7cvMBdkV-15" value="" style="edgeStyle=orthogonalEdgeStyle;rounded=0;orthogonalLoop=1;jettySize=auto;html=1;fontSize=11;" parent="WIyWlLk6GJQsqaUBKTNV-1" source="JwHX2udDNT2M7cvMBdkV-12" target="JwHX2udDNT2M7cvMBdkV-14" edge="1">
          <mxGeometry relative="1" as="geometry" />
        </mxCell>
        <mxCell id="JwHX2udDNT2M7cvMBdkV-12" value="Install Helm&lt;br&gt;&lt;font style=&quot;font-size: 9px&quot;&gt;(Ansible Role:&amp;nbsp;gantsign.helm)&amp;nbsp;&lt;/font&gt;" style="rounded=1;whiteSpace=wrap;html=1;fontSize=12;glass=0;strokeWidth=1;shadow=0;" parent="WIyWlLk6GJQsqaUBKTNV-1" vertex="1">
          <mxGeometry x="500" y="207" width="220" height="40" as="geometry" />
        </mxCell>
        <mxCell id="VpD8w-KAUAByEMXQQ5Yl-1" style="edgeStyle=orthogonalEdgeStyle;rounded=0;orthogonalLoop=1;jettySize=auto;html=1;exitX=0;exitY=0.5;exitDx=0;exitDy=0;fontSize=11;" edge="1" parent="WIyWlLk6GJQsqaUBKTNV-1" source="JwHX2udDNT2M7cvMBdkV-14" target="WIyWlLk6GJQsqaUBKTNV-6">
          <mxGeometry relative="1" as="geometry" />
        </mxCell>
        <mxCell id="JwHX2udDNT2M7cvMBdkV-14" value="Install Kubectl&lt;br&gt;&lt;font style=&quot;font-size: 9px&quot;&gt;(Ansible Role:&amp;nbsp;andrewrothstein.kubectl)&amp;nbsp;&lt;/font&gt;" style="rounded=1;whiteSpace=wrap;html=1;fontSize=12;glass=0;strokeWidth=1;shadow=0;" parent="WIyWlLk6GJQsqaUBKTNV-1" vertex="1">
          <mxGeometry x="500" y="270" width="220" height="40" as="geometry" />
        </mxCell>
      </root>
    </mxGraphModel>
  </diagram>
</mxfile>
